<?xml version="1.0" standalone="no"?>
<!DOCTYPE svg PUBLIC "-//W3C//DTD SVG 20010904//EN"
 "http://www.w3.org/TR/2001/REC-SVG-20010904/DTD/svg10.dtd">
<svg version="1.0" xmlns="http://www.w3.org/2000/svg"
 width="800.000000pt" height="800.000000pt" viewBox="0 0 800.000000 800.000000"
 preserveAspectRatio="xMidYMid meet">
<metadata>
Created by potrace 1.11, written by Peter Selinger 2001-2013
</metadata>
<g transform="translate(0.000000,800.000000) scale(0.100000,-0.100000)"
fill="#000000" stroke="none">
<path d="M5275 6436 c-18 -8 -94 -16 -185 -20 -104 -4 -180 -13 -230 -26 -41
-11 -102 -27 -135 -35 -33 -8 -91 -24 -130 -35 -92 -28 -203 -59 -237 -66 -16
-4 -28 -12 -28 -19 0 -12 -60 -41 -192 -95 -31 -13 -55 -27 -52 -32 7 -10 -39
-51 -96 -85 -55 -33 -319 -255 -414 -348 -39 -38 -72 -63 -74 -57 -2 6 -14 27
-28 47 -13 20 -24 40 -24 44 0 22 -44 62 -64 59 -13 -1 -36 8 -52 22 -16 14
-82 51 -146 83 -97 48 -128 59 -180 62 -81 6 -252 42 -256 55 -2 6 -28 10 -58
10 -31 0 -64 5 -75 11 -58 31 -359 47 -424 22 -22 -8 -71 -24 -110 -34 -38
-11 -94 -33 -122 -50 -29 -16 -61 -29 -70 -29 -10 0 -47 -23 -83 -51 -36 -27
-90 -66 -120 -86 -30 -20 -64 -48 -75 -62 -10 -14 -35 -41 -55 -59 -48 -44
-45 -41 -95 -97 -25 -27 -59 -79 -77 -115 -17 -36 -43 -90 -59 -120 -25 -50
-51 -129 -111 -334 -11 -38 -33 -87 -49 -109 -48 -67 -38 -191 15 -171 21 8
21 -32 1 -100 -8 -27 -15 -68 -15 -91 0 -35 -52 -219 -79 -280 -32 -71 -34
-86 -17 -103 14 -14 18 -14 30 -2 8 8 21 35 30 60 21 63 21 12 0 -61 -22 -74
-15 -549 10 -619 9 -25 16 -56 16 -70 0 -25 23 -135 41 -196 5 -17 9 -42 9
-56 0 -14 10 -38 22 -53 30 -39 50 -81 71 -150 10 -33 23 -73 29 -90 5 -16 14
-66 18 -110 13 -121 25 -162 70 -250 22 -44 47 -103 56 -131 8 -29 24 -62 34
-74 11 -13 20 -29 20 -35 0 -18 40 -65 61 -73 9 -4 32 -25 51 -48 69 -86 212
-240 237 -256 45 -30 62 -42 99 -70 19 -16 43 -28 53 -28 9 0 32 -8 51 -17 18
-9 40 -20 49 -24 31 -14 267 -31 389 -27 111 4 135 8 210 36 47 18 105 42 130
55 228 116 336 177 398 225 90 69 115 85 169 100 50 15 83 53 83 95 0 22 10
40 42 69 47 43 54 44 106 22 79 -34 126 -46 130 -36 3 10 47 -3 127 -37 87
-37 197 -64 353 -87 23 -4 45 -11 48 -15 3 -5 27 -9 54 -9 37 0 48 -3 44 -13
-20 -53 149 -47 291 9 115 46 194 84 201 96 3 5 14 2 24 -7 18 -16 23 -15 87
9 37 15 82 34 98 43 158 88 196 107 280 142 40 17 87 44 196 114 33 21 64 35
69 32 6 -4 29 0 53 9 23 8 87 29 142 46 55 17 120 41 145 53 49 24 208 139
255 184 17 16 39 36 49 44 18 13 18 12 8 -6 -6 -11 -45 -63 -86 -114 -42 -52
-76 -98 -76 -102 0 -13 28 -29 41 -24 23 10 264 327 285 376 7 14 46 64 88
110 42 46 75 88 73 95 -1 6 22 45 51 85 62 85 167 250 187 294 37 80 72 181
64 186 -9 5 17 125 47 219 19 62 35 222 23 237 -6 6 -11 89 -13 185 -1 108 -7
181 -14 195 -7 12 -12 56 -12 98 0 63 4 83 21 107 19 26 23 48 27 149 6 144
-10 237 -63 364 -42 102 -38 97 -75 99 -8 1 -27 25 -42 55 -15 30 -45 73 -67
95 -40 42 -165 136 -181 136 -5 0 -36 40 -69 89 -66 97 -161 196 -190 196 -10
1 -48 25 -86 55 -97 78 -139 109 -149 110 -4 0 -28 14 -53 30 -24 17 -46 30
-49 30 -7 0 -144 80 -164 95 -28 22 -163 41 -355 50 -55 3 -116 7 -135 9 -19
3 -48 -1 -65 -8z m-192 -392 c21 -3 65 -1 97 5 49 10 65 9 96 -4 20 -8 58 -15
84 -15 34 0 52 -5 65 -20 10 -11 23 -20 29 -20 16 0 116 -52 116 -61 0 -7 92
-69 103 -69 3 0 7 26 9 58 3 53 5 57 28 57 24 0 25 -2 28 -75 2 -51 7 -77 17
-83 8 -4 12 -13 10 -20 -2 -6 36 -43 85 -82 49 -38 88 -75 85 -81 -2 -7 8 -22
22 -35 34 -32 123 -164 123 -183 0 -8 23 -59 52 -113 54 -104 81 -192 79 -258
-1 -22 -2 -139 -4 -260 -2 -183 -5 -225 -18 -245 -9 -14 -19 -47 -23 -75 -6
-48 -6 -49 9 -25 14 24 14 23 8 -25 -3 -27 -9 -52 -13 -55 -4 -3 -10 -27 -14
-54 -13 -85 -20 -96 -65 -96 -37 0 -40 2 -54 45 -15 42 -15 45 2 45 31 0 41
22 41 91 0 63 -2 69 -31 93 -26 22 -40 26 -95 26 -60 0 -65 -2 -74 -26 -16
-41 -13 -159 5 -174 8 -7 15 -25 15 -41 0 -15 6 -34 13 -41 8 -7 19 -29 26
-48 20 -61 55 -90 105 -90 14 0 26 -3 25 -7 -1 -18 -88 -148 -105 -158 -11 -5
-40 -29 -66 -52 -26 -24 -54 -43 -62 -43 -9 0 -23 -11 -31 -24 -11 -16 -32
-28 -58 -34 -23 -5 -139 -52 -257 -104 -118 -52 -243 -105 -278 -116 l-63 -21
31 44 c17 25 58 71 91 104 34 33 58 64 55 70 -4 6 4 27 17 48 22 36 67 132
101 217 13 30 20 37 33 31 39 -16 50 -16 74 3 21 18 24 29 26 91 1 39 4 75 7
79 6 10 -8 110 -19 136 -6 13 -4 17 5 14 26 -8 60 -139 60 -232 0 -67 13 -91
47 -84 16 3 18 13 15 83 -1 44 -7 98 -13 121 -6 23 -9 51 -7 64 6 41 68 -97
68 -152 0 -30 5 -50 14 -55 8 -4 15 -17 18 -28 2 -15 11 -20 33 -20 l30 0 -3
75 c-2 41 -9 80 -15 85 -13 11 -59 101 -76 148 -9 24 -16 27 -55 27 -30 0 -46
5 -50 15 -3 9 -19 15 -41 15 -20 0 -35 5 -35 12 0 9 -3 9 -12 0 -20 -20 -26
-14 -38 43 -24 117 -159 325 -210 325 -21 0 -44 25 -35 39 11 18 -25 115 -61
164 -19 26 -47 52 -62 58 -14 6 -33 15 -40 22 -19 15 -80 36 -87 29 -3 -3 -5
-15 -5 -27 0 -12 -9 -30 -20 -40 -15 -14 -20 -30 -19 -69 1 -70 7 -81 64 -119
42 -27 50 -37 50 -62 0 -23 -5 -31 -22 -33 -13 -2 -26 4 -32 16 -6 11 -28 27
-50 36 -35 14 -42 22 -56 68 -8 28 -15 79 -15 112 0 70 18 101 65 115 l30 9
-28 1 c-16 1 -26 5 -22 11 4 6 -28 10 -88 10 -71 0 -98 4 -107 15 -25 30 -90
-40 -90 -98 0 -32 21 -77 44 -96 20 -17 21 -31 2 -31 -37 0 -183 -87 -245
-145 -79 -75 -120 -141 -197 -321 l-58 -136 -105 -98 c-58 -54 -127 -115 -152
-136 -25 -22 -53 -51 -61 -65 -14 -23 -149 -139 -162 -139 -4 0 -6 33 -6 73 0
86 -16 117 -60 117 -20 0 -35 -8 -46 -25 -15 -22 -23 -25 -80 -25 -36 0 -91
-8 -124 -17 -51 -14 -66 -24 -97 -62 -20 -25 -39 -50 -43 -54 -4 -4 -42 4 -86
19 -58 20 -106 28 -181 32 l-103 5 0 98 0 98 33 6 c17 3 60 9 94 14 126 19
233 77 233 125 0 7 16 28 36 47 91 88 204 292 204 370 0 120 -95 285 -175 305
-14 3 -25 9 -25 13 0 20 -76 93 -126 121 -45 25 -75 34 -148 42 -168 18 -152
25 -399 -190 -97 -84 -109 -105 -105 -182 3 -58 0 -67 -20 -83 -43 -35 -57
-75 -82 -227 -6 -36 -16 -78 -22 -95 -38 -109 -42 -136 -30 -194 7 -31 12
-115 12 -187 0 -71 7 -200 16 -288 15 -149 15 -162 -1 -210 -23 -68 -31 -229
-15 -308 15 -81 66 -189 118 -255 44 -55 43 -62 -11 -82 -15 -6 -30 -19 -34
-28 -7 -21 -43 -52 -59 -53 -7 0 -19 17 -27 38 -8 21 -37 58 -65 82 -45 41
-53 55 -87 155 -21 61 -46 117 -56 125 -9 8 -31 47 -47 86 -29 68 -29 71 -11
82 26 16 24 22 -16 74 -45 57 -112 247 -126 353 -6 44 -14 89 -19 100 -5 11
-11 52 -13 90 -2 39 -9 104 -17 145 -13 78 -6 315 10 305 4 -2 17 -31 29 -64
26 -71 45 -91 67 -69 13 13 13 20 -4 59 -51 118 -87 306 -97 493 -7 161 6 284
42 396 13 41 24 82 25 90 0 8 6 22 13 30 7 8 16 25 20 38 8 26 139 163 173
181 13 7 40 27 60 45 74 64 189 115 267 116 22 1 58 7 80 15 22 8 64 15 93 15
34 0 52 4 52 12 0 7 7 2 16 -10 13 -20 24 -22 94 -22 53 0 102 -7 147 -21 188
-59 187 -58 255 -120 73 -66 131 -142 126 -168 -4 -18 -51 -30 -155 -38 -79
-6 -105 -21 -82 -49 10 -13 28 -15 86 -12 l73 3 0 -28 c0 -37 40 -77 77 -77
41 1 66 18 127 89 30 35 64 70 76 78 11 8 20 20 20 27 0 7 14 25 31 42 21 20
28 23 21 9 -7 -11 -23 -49 -38 -85 -14 -36 -35 -84 -45 -107 -10 -23 -19 -45
-19 -49 0 -15 -34 -44 -50 -44 -10 0 -23 -7 -30 -15 -16 -20 3 -45 35 -45 12
0 28 7 35 15 7 8 18 15 24 15 7 0 23 24 36 53 13 28 31 70 41 92 10 22 30 69
44 104 62 149 104 216 168 269 34 27 80 65 102 84 40 34 40 27 -1 -29 -13 -17
-24 -35 -24 -38 0 -4 -13 -27 -30 -52 -34 -50 -35 -56 -16 -72 15 -12 46 -5
46 11 0 6 14 30 30 55 17 24 37 57 45 73 8 15 41 61 73 102 48 60 67 75 103
86 24 8 75 27 112 43 38 17 76 27 86 24 11 -3 56 4 102 16 46 12 107 21 134
21 109 -3 143 -2 230 7 91 9 159 8 228 -5z m1698 -509 c32 -56 39 -91 11 -54
-10 13 -34 51 -52 84 -29 51 -30 57 -11 40 13 -11 36 -42 52 -70z m144 -220
c20 -57 29 -104 31 -165 3 -83 3 -84 -11 -45 -7 22 -14 50 -14 63 -1 13 -8 37
-17 54 -16 30 -37 195 -23 180 4 -4 19 -43 34 -87z m-3733 -421 c17 -14 43
-28 58 -31 24 -4 28 -11 34 -50 3 -25 6 -85 6 -133 0 -73 -3 -90 -20 -108 -22
-23 -27 -25 -76 -22 -24 1 -46 -11 -94 -49 -40 -32 -73 -51 -89 -51 -47 0
-104 22 -133 50 -24 24 -28 36 -28 84 0 31 8 78 19 105 22 59 130 184 181 211
51 28 106 25 142 -6z m2074 -304 c36 0 35 1 48 -77 5 -28 2 -33 -14 -33 -31 0
-68 -21 -73 -41 -3 -12 -14 -19 -30 -19 -14 0 -29 -4 -32 -10 -8 -13 -55 -13
-55 -1 0 5 10 11 23 13 17 2 22 9 21 33 0 17 -4 38 -8 47 -6 12 -2 17 16 20
17 2 25 12 32 41 7 26 14 36 24 32 7 -3 29 -5 48 -5z m729 -152 c19 -9 25 -19
25 -44 0 -26 -5 -33 -25 -38 -50 -13 -79 26 -59 78 7 19 24 20 59 4z m-2412
-610 c-7 -57 -15 -63 -53 -43 l-33 17 32 15 c18 9 36 24 42 34 15 29 18 23 12
-23z m2429 -1044 c-25 -17 -137 -65 -149 -63 -10 1 148 78 162 78 5 1 -1 -6
-13 -15z"/>
<path d="M5215 5731 c-27 -4 -43 -13 -49 -27 -7 -16 -28 -25 -85 -39 -65 -15
-81 -23 -113 -58 -40 -43 -68 -118 -68 -185 0 -54 -42 -146 -80 -173 -16 -13
-30 -26 -30 -30 0 -6 151 -18 236 -19 18 0 39 -9 49 -20 10 -11 24 -20 31 -20
7 0 14 -3 16 -8 2 -4 25 -25 52 -47 118 -95 130 -113 154 -233 l7 -34 58 58
c65 65 82 92 96 155 7 31 7 47 -2 58 -7 8 -13 24 -14 35 -8 96 -69 176 -134
176 -10 0 -21 5 -24 10 -3 6 -35 10 -71 10 -51 0 -68 -4 -84 -20 -25 -25 -25
-22 6 -55 32 -34 30 -78 -3 -83 -17 -3 -26 4 -35 24 -7 16 -23 39 -35 53 -13
13 -23 35 -23 48 0 13 -7 26 -16 30 -16 6 -104 -32 -116 -51 -7 -10 -38 9 -38
25 0 15 113 89 137 89 20 0 23 5 23 40 l0 40 -54 0 c-35 0 -58 5 -66 15 -21
25 5 45 59 45 25 0 56 3 68 6 l23 6 -21 29 c-44 62 8 96 54 35 15 -19 27 -42
27 -50 0 -13 13 -16 64 -16 73 0 96 6 96 26 0 10 15 14 54 14 53 0 55 -1 97
-52 37 -47 41 -50 35 -24 -12 48 -64 104 -124 134 -54 26 -55 27 -26 32 23 4
29 10 29 30 0 24 -3 25 -60 26 -33 1 -78 -1 -100 -5z"/>
<path d="M5258 5523 c-27 -2 -48 -8 -48 -14 0 -5 -11 -9 -25 -9 -18 0 -28 -7
-35 -25 -5 -14 -14 -25 -20 -25 -5 0 -10 -17 -10 -39 l0 -38 53 -7 c167 -20
167 -20 167 -2 0 51 95 -17 151 -109 l24 -40 6 30 c4 17 7 51 8 78 1 43 -1 47
-23 47 -24 0 -54 25 -43 37 9 8 -21 63 -52 96 -27 28 -33 29 -153 20z"/>
<path d="M3902 4293 c-12 -10 -24 -35 -28 -55 -5 -31 -2 -41 20 -62 30 -30 88
-35 124 -10 44 31 20 112 -40 133 -42 15 -52 14 -76 -6z"/>
</g>
</svg>
